<svg width="356" height="61" viewBox="0 0 356 61" fill="none" xmlns="http://www.w3.org/2000/svg">
<rect y="0.762695" width="356" height="60" rx="10" fill="#FFF0C2"/>
<path d="M58.98 36.7627V26.6827H62.942C63.5813 26.6827 64.118 26.8134 64.552 27.0747C64.986 27.336 65.3127 27.6744 65.532 28.0897C65.7513 28.5004 65.861 28.9344 65.861 29.3917C65.861 29.947 65.7233 30.423 65.448 30.8197C65.1773 31.2164 64.811 31.487 64.349 31.6317L64.335 31.2887C64.979 31.4474 65.4737 31.7577 65.819 32.2197C66.1643 32.677 66.337 33.2114 66.337 33.8227C66.337 34.4154 66.218 34.931 65.98 35.3697C65.7467 35.8084 65.4037 36.1514 64.951 36.3987C64.503 36.6414 63.9593 36.7627 63.32 36.7627H58.98ZM60.464 35.3697H63.096C63.4273 35.3697 63.7237 35.3067 63.985 35.1807C64.251 35.0547 64.4587 34.875 64.608 34.6417C64.762 34.4037 64.839 34.1214 64.839 33.7947C64.839 33.4914 64.7713 33.2184 64.636 32.9757C64.5053 32.7284 64.314 32.5347 64.062 32.3947C63.8147 32.25 63.523 32.1777 63.187 32.1777H60.464V35.3697ZM60.464 30.7987H62.921C63.1917 30.7987 63.4343 30.745 63.649 30.6377C63.8683 30.5257 64.041 30.367 64.167 30.1617C64.2977 29.9517 64.363 29.6997 64.363 29.4057C64.363 29.0137 64.2323 28.6917 63.971 28.4397C63.7097 28.1877 63.3597 28.0617 62.921 28.0617H60.464V30.7987ZM70.579 36.9657C70.0563 36.9657 69.6177 36.8817 69.263 36.7137C68.9083 36.5457 68.619 36.3264 68.395 36.0557C68.1757 35.7804 68.0077 35.4817 67.891 35.1597C67.7743 34.8377 67.695 34.5227 67.653 34.2147C67.611 33.9067 67.59 33.636 67.59 33.4027V29.2027H69.074V32.9197C69.074 33.2137 69.0973 33.517 69.144 33.8297C69.1953 34.1377 69.2887 34.4247 69.424 34.6907C69.564 34.9567 69.7577 35.1714 70.005 35.3347C70.257 35.498 70.5837 35.5797 70.985 35.5797C71.2463 35.5797 71.4937 35.5377 71.727 35.4537C71.9603 35.365 72.1633 35.225 72.336 35.0337C72.5133 34.8424 72.651 34.5904 72.749 34.2777C72.8517 33.965 72.903 33.5847 72.903 33.1367L73.813 33.4797C73.813 34.1657 73.6847 34.7724 73.428 35.2997C73.1713 35.8224 72.8027 36.2307 72.322 36.5247C71.8413 36.8187 71.2603 36.9657 70.579 36.9657ZM73.078 36.7627V34.5787H72.903V29.2027H74.38V36.7627H73.078ZM79.2343 36.9657C78.3149 36.9657 77.5659 36.7627 76.9873 36.3567C76.4086 35.9507 76.0539 35.379 75.9233 34.6417L77.4213 34.4107C77.5146 34.8027 77.7293 35.113 78.0653 35.3417C78.4059 35.5657 78.8283 35.6777 79.3323 35.6777C79.7896 35.6777 80.1466 35.5844 80.4033 35.3977C80.6646 35.211 80.7953 34.9544 80.7953 34.6277C80.7953 34.4364 80.7486 34.2824 80.6553 34.1657C80.5666 34.0444 80.3776 33.93 80.0883 33.8227C79.7989 33.7154 79.3579 33.5824 78.7653 33.4237C78.1166 33.2557 77.6009 33.076 77.2183 32.8847C76.8403 32.6887 76.5696 32.4624 76.4063 32.2057C76.2476 31.9444 76.1683 31.6294 76.1683 31.2607C76.1683 30.8034 76.2896 30.4044 76.5323 30.0637C76.7749 29.723 77.1156 29.4594 77.5543 29.2727C77.9976 29.086 78.5156 28.9927 79.1083 28.9927C79.6869 28.9927 80.2026 29.0837 80.6553 29.2657C81.1079 29.4477 81.4743 29.7067 81.7543 30.0427C82.0343 30.374 82.2023 30.7637 82.2583 31.2117L80.7603 31.4847C80.7089 31.1207 80.5386 30.8337 80.2493 30.6237C79.9599 30.4137 79.5843 30.2994 79.1223 30.2807C78.6789 30.262 78.3196 30.3367 78.0443 30.5047C77.7689 30.668 77.6313 30.8944 77.6313 31.1837C77.6313 31.3517 77.6826 31.494 77.7853 31.6107C77.8926 31.7274 78.0979 31.8394 78.4013 31.9467C78.7046 32.054 79.1526 32.1824 79.7453 32.3317C80.3799 32.495 80.8839 32.677 81.2573 32.8777C81.6306 33.0737 81.8966 33.3094 82.0553 33.5847C82.2186 33.8554 82.3003 34.1844 82.3003 34.5717C82.3003 35.3184 82.0273 35.904 81.4813 36.3287C80.9399 36.7534 80.1909 36.9657 79.2343 36.9657ZM83.9891 27.9637V26.5427H85.4521V27.9637H83.9891ZM83.9891 36.7627V29.2027H85.4521V36.7627H83.9891ZM92.8602 36.7627V33.0457C92.8602 32.7517 92.8346 32.4507 92.7832 32.1427C92.7366 31.83 92.6432 31.5407 92.5032 31.2747C92.3679 31.0087 92.1742 30.794 91.9222 30.6307C91.6749 30.4674 91.3506 30.3857 90.9492 30.3857C90.6879 30.3857 90.4406 30.43 90.2072 30.5187C89.9739 30.6027 89.7686 30.7404 89.5912 30.9317C89.4186 31.123 89.2809 31.375 89.1782 31.6877C89.0802 32.0004 89.0312 32.3807 89.0312 32.8287L88.1212 32.4857C88.1212 31.7997 88.2496 31.1954 88.5062 30.6727C88.7629 30.1454 89.1316 29.7347 89.6122 29.4407C90.0929 29.1467 90.6739 28.9997 91.3552 28.9997C91.8779 28.9997 92.3166 29.0837 92.6712 29.2517C93.0259 29.4197 93.3129 29.6414 93.5322 29.9167C93.7562 30.1874 93.9266 30.4837 94.0432 30.8057C94.1599 31.1277 94.2392 31.4427 94.2812 31.7507C94.3232 32.0587 94.3442 32.3294 94.3442 32.5627V36.7627H92.8602ZM87.5472 36.7627V29.2027H88.8562V31.3867H89.0312V36.7627H87.5472ZM99.4248 36.9727C98.6735 36.9727 98.0131 36.8094 97.4438 36.4827C96.8791 36.1514 96.4381 35.6917 96.1208 35.1037C95.8081 34.511 95.6518 33.825 95.6518 33.0457C95.6518 32.2197 95.8058 31.5034 96.1138 30.8967C96.4265 30.29 96.8605 29.821 97.4158 29.4897C97.9711 29.1584 98.6175 28.9927 99.3548 28.9927C100.125 28.9927 100.78 29.1724 101.322 29.5317C101.863 29.8864 102.267 30.3927 102.533 31.0507C102.803 31.7087 102.911 32.4904 102.855 33.3957H101.392V32.8637C101.382 31.9864 101.214 31.3377 100.888 30.9177C100.566 30.4977 100.073 30.2877 99.4108 30.2877C98.6781 30.2877 98.1275 30.5187 97.7588 30.9807C97.3901 31.4427 97.2058 32.11 97.2058 32.9827C97.2058 33.8134 97.3901 34.4574 97.7588 34.9147C98.1275 35.3674 98.6595 35.5937 99.3548 35.5937C99.8121 35.5937 100.206 35.491 100.538 35.2857C100.874 35.0757 101.135 34.777 101.322 34.3897L102.757 34.8447C102.463 35.5214 102.017 36.0464 101.42 36.4197C100.822 36.7884 100.157 36.9727 99.4248 36.9727ZM96.7298 33.3957V32.2547H102.127V33.3957H96.7298ZM107.316 36.9657C106.397 36.9657 105.648 36.7627 105.069 36.3567C104.491 35.9507 104.136 35.379 104.005 34.6417L105.503 34.4107C105.597 34.8027 105.811 35.113 106.147 35.3417C106.488 35.5657 106.91 35.6777 107.414 35.6777C107.872 35.6777 108.229 35.5844 108.485 35.3977C108.747 35.211 108.877 34.9544 108.877 34.6277C108.877 34.4364 108.831 34.2824 108.737 34.1657C108.649 34.0444 108.46 33.93 108.17 33.8227C107.881 33.7154 107.44 33.5824 106.847 33.4237C106.199 33.2557 105.683 33.076 105.3 32.8847C104.922 32.6887 104.652 32.4624 104.488 32.2057C104.33 31.9444 104.25 31.6294 104.25 31.2607C104.25 30.8034 104.372 30.4044 104.614 30.0637C104.857 29.723 105.198 29.4594 105.636 29.2727C106.08 29.086 106.598 28.9927 107.19 28.9927C107.769 28.9927 108.285 29.0837 108.737 29.2657C109.19 29.4477 109.556 29.7067 109.836 30.0427C110.116 30.374 110.284 30.7637 110.34 31.2117L108.842 31.4847C108.791 31.1207 108.621 30.8337 108.331 30.6237C108.042 30.4137 107.666 30.2994 107.204 30.2807C106.761 30.262 106.402 30.3367 106.126 30.5047C105.851 30.668 105.713 30.8944 105.713 31.1837C105.713 31.3517 105.765 31.494 105.867 31.6107C105.975 31.7274 106.18 31.8394 106.483 31.9467C106.787 32.054 107.235 32.1824 107.827 32.3317C108.462 32.495 108.966 32.677 109.339 32.8777C109.713 33.0737 109.979 33.3094 110.137 33.5847C110.301 33.8554 110.382 34.1844 110.382 34.5717C110.382 35.3184 110.109 35.904 109.563 36.3287C109.022 36.7534 108.273 36.9657 107.316 36.9657ZM114.822 36.9657C113.903 36.9657 113.154 36.7627 112.575 36.3567C111.997 35.9507 111.642 35.379 111.511 34.6417L113.009 34.4107C113.103 34.8027 113.317 35.113 113.653 35.3417C113.994 35.5657 114.416 35.6777 114.92 35.6777C115.378 35.6777 115.735 35.5844 115.991 35.3977C116.253 35.211 116.383 34.9544 116.383 34.6277C116.383 34.4364 116.337 34.2824 116.243 34.1657C116.155 34.0444 115.966 33.93 115.676 33.8227C115.387 33.7154 114.946 33.5824 114.353 33.4237C113.705 33.2557 113.189 33.076 112.806 32.8847C112.428 32.6887 112.158 32.4624 111.994 32.2057C111.836 31.9444 111.756 31.6294 111.756 31.2607C111.756 30.8034 111.878 30.4044 112.12 30.0637C112.363 29.723 112.704 29.4594 113.142 29.2727C113.586 29.086 114.104 28.9927 114.696 28.9927C115.275 28.9927 115.791 29.0837 116.243 29.2657C116.696 29.4477 117.062 29.7067 117.342 30.0427C117.622 30.374 117.79 30.7637 117.846 31.2117L116.348 31.4847C116.297 31.1207 116.127 30.8337 115.837 30.6237C115.548 30.4137 115.172 30.2994 114.71 30.2807C114.267 30.262 113.908 30.3367 113.632 30.5047C113.357 30.668 113.219 30.8944 113.219 31.1837C113.219 31.3517 113.271 31.494 113.373 31.6107C113.481 31.7274 113.686 31.8394 113.989 31.9467C114.293 32.054 114.741 32.1824 115.333 32.3317C115.968 32.495 116.472 32.677 116.845 32.8777C117.219 33.0737 117.485 33.3094 117.643 33.5847C117.807 33.8554 117.888 34.1844 117.888 34.5717C117.888 35.3184 117.615 35.904 117.069 36.3287C116.528 36.7534 115.779 36.9657 114.822 36.9657ZM122.38 36.7627V26.6827H123.843V36.7627H122.38ZM131.251 36.7627V33.0457C131.251 32.7517 131.225 32.4507 131.174 32.1427C131.127 31.83 131.034 31.5407 130.894 31.2747C130.759 31.0087 130.565 30.794 130.313 30.6307C130.066 30.4674 129.741 30.3857 129.34 30.3857C129.079 30.3857 128.831 30.43 128.598 30.5187C128.365 30.6027 128.159 30.7404 127.982 30.9317C127.809 31.123 127.672 31.375 127.569 31.6877C127.471 32.0004 127.422 32.3807 127.422 32.8287L126.512 32.4857C126.512 31.7997 126.64 31.1954 126.897 30.6727C127.154 30.1454 127.522 29.7347 128.003 29.4407C128.484 29.1467 129.065 28.9997 129.746 28.9997C130.269 28.9997 130.707 29.0837 131.062 29.2517C131.417 29.4197 131.704 29.6414 131.923 29.9167C132.147 30.1874 132.317 30.4837 132.434 30.8057C132.551 31.1277 132.63 31.4427 132.672 31.7507C132.714 32.0587 132.735 32.3294 132.735 32.5627V36.7627H131.251ZM125.938 36.7627V29.2027H127.247V31.3867H127.422V36.7627H125.938ZM135.251 36.7627V28.9367C135.251 28.7454 135.258 28.5424 135.272 28.3277C135.286 28.1084 135.326 27.8937 135.391 27.6837C135.461 27.469 135.575 27.273 135.734 27.0957C135.925 26.8857 136.135 26.7364 136.364 26.6477C136.593 26.559 136.819 26.5077 137.043 26.4937C137.272 26.4797 137.482 26.4727 137.673 26.4727H138.625V27.6767H137.743C137.398 27.6767 137.139 27.763 136.966 27.9357C136.798 28.1037 136.714 28.344 136.714 28.6567V36.7627H135.251ZM133.998 30.3787V29.2027H138.625V30.3787H133.998ZM142.749 36.9727C141.993 36.9727 141.338 36.8024 140.782 36.4617C140.227 36.121 139.798 35.652 139.494 35.0547C139.196 34.4527 139.046 33.7597 139.046 32.9757C139.046 32.187 139.2 31.494 139.508 30.8967C139.816 30.2947 140.248 29.828 140.803 29.4967C141.359 29.1607 142.007 28.9927 142.749 28.9927C143.505 28.9927 144.161 29.163 144.716 29.5037C145.272 29.8444 145.701 30.3134 146.004 30.9107C146.308 31.508 146.459 32.1964 146.459 32.9757C146.459 33.7644 146.305 34.4597 145.997 35.0617C145.694 35.659 145.265 36.128 144.709 36.4687C144.154 36.8047 143.501 36.9727 142.749 36.9727ZM142.749 35.5937C143.473 35.5937 144.012 35.351 144.366 34.8657C144.726 34.3757 144.905 33.7457 144.905 32.9757C144.905 32.187 144.723 31.557 144.359 31.0857C144 30.6097 143.463 30.3717 142.749 30.3717C142.259 30.3717 141.856 30.4837 141.538 30.7077C141.221 30.927 140.985 31.2327 140.831 31.6247C140.677 32.012 140.6 32.4624 140.6 32.9757C140.6 33.769 140.782 34.4037 141.146 34.8797C141.51 35.3557 142.045 35.5937 142.749 35.5937Z" fill="#118411"/>
<circle cx="33.5" cy="31.2627" r="14" stroke="#3A2B65"/>
<circle cx="33.5" cy="31.2627" r="14.5" fill="#339233"/>
<path fill-rule="evenodd" clip-rule="evenodd" d="M40.7429 25.9618C41.059 26.2575 41.0877 26.7726 40.8065 27.1061L32.8907 36.4966C32.608 36.8319 32.1227 36.8533 31.8152 36.5439L27.2346 31.935C26.9489 31.6476 26.9216 31.1686 27.1667 30.8412C27.4371 30.4799 27.9407 30.4302 28.2626 30.7396L31.8165 34.1562C32.1254 34.4531 32.6009 34.4266 32.8791 34.0969L39.6879 26.0284C39.9634 25.7019 40.4333 25.6723 40.7429 25.9618Z" fill="white"/>
<path d="M252.28 37.7627L255.556 27.6827H257.663L260.939 37.7627H259.42L256.403 28.5647H256.781L253.799 37.7627H252.28ZM253.981 35.4877V34.1157H259.245V35.4877H253.981ZM265.198 37.9727C264.493 37.9727 263.884 37.7977 263.371 37.4477C262.862 37.0977 262.468 36.6217 262.188 36.0197C261.913 35.413 261.775 34.7317 261.775 33.9757C261.775 33.215 261.915 32.536 262.195 31.9387C262.475 31.3367 262.872 30.863 263.385 30.5177C263.903 30.1677 264.517 29.9927 265.226 29.9927C265.94 29.9927 266.54 30.1677 267.025 30.5177C267.515 30.863 267.884 31.3367 268.131 31.9387C268.383 32.5407 268.509 33.2197 268.509 33.9757C268.509 34.7317 268.383 35.4107 268.131 36.0127C267.879 36.6147 267.508 37.093 267.018 37.4477C266.528 37.7977 265.921 37.9727 265.198 37.9727ZM265.401 36.6497C265.882 36.6497 266.274 36.5354 266.577 36.3067C266.88 36.078 267.102 35.763 267.242 35.3617C267.382 34.9604 267.452 34.4984 267.452 33.9757C267.452 33.453 267.38 32.991 267.235 32.5897C267.095 32.1884 266.876 31.8757 266.577 31.6517C266.283 31.4277 265.907 31.3157 265.45 31.3157C264.965 31.3157 264.566 31.4347 264.253 31.6727C263.94 31.9107 263.707 32.2304 263.553 32.6317C263.404 33.033 263.329 33.481 263.329 33.9757C263.329 34.475 263.404 34.9277 263.553 35.3337C263.707 35.735 263.936 36.0547 264.239 36.2927C264.547 36.5307 264.934 36.6497 265.401 36.6497ZM267.452 37.7627V32.3237H267.284V27.6827H268.754V37.7627H267.452ZM273.715 37.9727C273.011 37.9727 272.402 37.7977 271.888 37.4477C271.38 37.0977 270.985 36.6217 270.705 36.0197C270.43 35.413 270.292 34.7317 270.292 33.9757C270.292 33.215 270.432 32.536 270.712 31.9387C270.992 31.3367 271.389 30.863 271.902 30.5177C272.42 30.1677 273.034 29.9927 273.743 29.9927C274.457 29.9927 275.057 30.1677 275.542 30.5177C276.032 30.863 276.401 31.3367 276.648 31.9387C276.9 32.5407 277.026 33.2197 277.026 33.9757C277.026 34.7317 276.9 35.4107 276.648 36.0127C276.396 36.6147 276.025 37.093 275.535 37.4477C275.045 37.7977 274.439 37.9727 273.715 37.9727ZM273.918 36.6497C274.399 36.6497 274.791 36.5354 275.094 36.3067C275.398 36.078 275.619 35.763 275.759 35.3617C275.899 34.9604 275.969 34.4984 275.969 33.9757C275.969 33.453 275.897 32.991 275.752 32.5897C275.612 32.1884 275.393 31.8757 275.094 31.6517C274.8 31.4277 274.425 31.3157 273.967 31.3157C273.482 31.3157 273.083 31.4347 272.77 31.6727C272.458 31.9107 272.224 32.2304 272.07 32.6317C271.921 33.033 271.846 33.481 271.846 33.9757C271.846 34.475 271.921 34.9277 272.07 35.3337C272.224 35.735 272.453 36.0547 272.756 36.2927C273.064 36.5307 273.452 36.6497 273.918 36.6497ZM275.969 37.7627V32.3237H275.801V27.6827H277.271V37.7627H275.969ZM279.23 37.7627V30.2027H280.532V32.0367L280.35 31.7987C280.443 31.556 280.565 31.3344 280.714 31.1337C280.863 30.9284 281.036 30.7604 281.232 30.6297C281.423 30.4897 281.636 30.3824 281.869 30.3077C282.107 30.2284 282.35 30.1817 282.597 30.1677C282.844 30.149 283.082 30.1607 283.311 30.2027V31.5747C283.064 31.5094 282.788 31.4907 282.485 31.5187C282.186 31.5467 281.911 31.6424 281.659 31.8057C281.421 31.9597 281.232 32.1464 281.092 32.3657C280.957 32.585 280.859 32.83 280.798 33.1007C280.737 33.3667 280.707 33.649 280.707 33.9477V37.7627H279.23ZM287.86 37.9727C287.109 37.9727 286.449 37.8094 285.879 37.4827C285.315 37.1514 284.874 36.6917 284.556 36.1037C284.244 35.511 284.087 34.825 284.087 34.0457C284.087 33.2197 284.241 32.5034 284.549 31.8967C284.862 31.29 285.296 30.821 285.851 30.4897C286.407 30.1584 287.053 29.9927 287.79 29.9927C288.56 29.9927 289.216 30.1724 289.757 30.5317C290.299 30.8864 290.702 31.3927 290.968 32.0507C291.239 32.7087 291.346 33.4904 291.29 34.3957H289.827V33.8637C289.818 32.9864 289.65 32.3377 289.323 31.9177C289.001 31.4977 288.509 31.2877 287.846 31.2877C287.114 31.2877 286.563 31.5187 286.194 31.9807C285.826 32.4427 285.641 33.11 285.641 33.9827C285.641 34.8134 285.826 35.4574 286.194 35.9147C286.563 36.3674 287.095 36.5937 287.79 36.5937C288.248 36.5937 288.642 36.491 288.973 36.2857C289.309 36.0757 289.571 35.777 289.757 35.3897L291.192 35.8447C290.898 36.5214 290.453 37.0464 289.855 37.4197C289.258 37.7884 288.593 37.9727 287.86 37.9727ZM285.165 34.3957V33.2547H290.562V34.3957H285.165ZM295.752 37.9657C294.833 37.9657 294.084 37.7627 293.505 37.3567C292.926 36.9507 292.572 36.379 292.441 35.6417L293.939 35.4107C294.032 35.8027 294.247 36.113 294.583 36.3417C294.924 36.5657 295.346 36.6777 295.85 36.6777C296.307 36.6777 296.664 36.5844 296.921 36.3977C297.182 36.211 297.313 35.9544 297.313 35.6277C297.313 35.4364 297.266 35.2824 297.173 35.1657C297.084 35.0444 296.895 34.93 296.606 34.8227C296.317 34.7154 295.876 34.5824 295.283 34.4237C294.634 34.2557 294.119 34.076 293.736 33.8847C293.358 33.6887 293.087 33.4624 292.924 33.2057C292.765 32.9444 292.686 32.6294 292.686 32.2607C292.686 31.8034 292.807 31.4044 293.05 31.0637C293.293 30.723 293.633 30.4594 294.072 30.2727C294.515 30.086 295.033 29.9927 295.626 29.9927C296.205 29.9927 296.72 30.0837 297.173 30.2657C297.626 30.4477 297.992 30.7067 298.272 31.0427C298.552 31.374 298.72 31.7637 298.776 32.2117L297.278 32.4847C297.227 32.1207 297.056 31.8337 296.767 31.6237C296.478 31.4137 296.102 31.2994 295.64 31.2807C295.197 31.262 294.837 31.3367 294.562 31.5047C294.287 31.668 294.149 31.8944 294.149 32.1837C294.149 32.3517 294.2 32.494 294.303 32.6107C294.41 32.7274 294.616 32.8394 294.919 32.9467C295.222 33.054 295.67 33.1824 296.263 33.3317C296.898 33.495 297.402 33.677 297.775 33.8777C298.148 34.0737 298.414 34.3094 298.573 34.5847C298.736 34.8554 298.818 35.1844 298.818 35.5717C298.818 36.3184 298.545 36.904 297.999 37.3287C297.458 37.7534 296.709 37.9657 295.752 37.9657ZM303.258 37.9657C302.338 37.9657 301.589 37.7627 301.011 37.3567C300.432 36.9507 300.077 36.379 299.947 35.6417L301.445 35.4107C301.538 35.8027 301.753 36.113 302.089 36.3417C302.429 36.5657 302.852 36.6777 303.356 36.6777C303.813 36.6777 304.17 36.5844 304.427 36.3977C304.688 36.211 304.819 35.9544 304.819 35.6277C304.819 35.4364 304.772 35.2824 304.679 35.1657C304.59 35.0444 304.401 34.93 304.112 34.8227C303.822 34.7154 303.381 34.5824 302.789 34.4237C302.14 34.2557 301.624 34.076 301.242 33.8847C300.864 33.6887 300.593 33.4624 300.43 33.2057C300.271 32.9444 300.192 32.6294 300.192 32.2607C300.192 31.8034 300.313 31.4044 300.556 31.0637C300.798 30.723 301.139 30.4594 301.578 30.2727C302.021 30.086 302.539 29.9927 303.132 29.9927C303.71 29.9927 304.226 30.0837 304.679 30.2657C305.131 30.4477 305.498 30.7067 305.778 31.0427C306.058 31.374 306.226 31.7637 306.282 32.2117L304.784 32.4847C304.732 32.1207 304.562 31.8337 304.273 31.6237C303.983 31.4137 303.608 31.2994 303.146 31.2807C302.702 31.262 302.343 31.3367 302.068 31.5047C301.792 31.668 301.655 31.8944 301.655 32.1837C301.655 32.3517 301.706 32.494 301.809 32.6107C301.916 32.7274 302.121 32.8394 302.425 32.9467C302.728 33.054 303.176 33.1824 303.769 33.3317C304.403 33.495 304.907 33.677 305.281 33.8777C305.654 34.0737 305.92 34.3094 306.079 34.5847C306.242 34.8554 306.324 35.1844 306.324 35.5717C306.324 36.3184 306.051 36.904 305.505 37.3287C304.963 37.7534 304.214 37.9657 303.258 37.9657ZM310.815 37.7627V27.6827H312.278V37.7627H310.815ZM319.686 37.7627V34.0457C319.686 33.7517 319.661 33.4507 319.609 33.1427C319.563 32.83 319.469 32.5407 319.329 32.2747C319.194 32.0087 319 31.794 318.748 31.6307C318.501 31.4674 318.177 31.3857 317.775 31.3857C317.514 31.3857 317.267 31.43 317.033 31.5187C316.8 31.6027 316.595 31.7404 316.417 31.9317C316.245 32.123 316.107 32.375 316.004 32.6877C315.906 33.0004 315.857 33.3807 315.857 33.8287L314.947 33.4857C314.947 32.7997 315.076 32.1954 315.332 31.6727C315.589 31.1454 315.958 30.7347 316.438 30.4407C316.919 30.1467 317.5 29.9997 318.181 29.9997C318.704 29.9997 319.143 30.0837 319.497 30.2517C319.852 30.4197 320.139 30.6414 320.358 30.9167C320.582 31.1874 320.753 31.4837 320.869 31.8057C320.986 32.1277 321.065 32.4427 321.107 32.7507C321.149 33.0587 321.17 33.3294 321.17 33.5627V37.7627H319.686ZM314.373 37.7627V30.2027H315.682V32.3867H315.857V37.7627H314.373ZM323.687 37.7627V29.9367C323.687 29.7454 323.694 29.5424 323.708 29.3277C323.722 29.1084 323.761 28.8937 323.827 28.6837C323.897 28.469 324.011 28.273 324.17 28.0957C324.361 27.8857 324.571 27.7364 324.8 27.6477C325.028 27.559 325.255 27.5077 325.479 27.4937C325.707 27.4797 325.917 27.4727 326.109 27.4727H327.061V28.6767H326.179C325.833 28.6767 325.574 28.763 325.402 28.9357C325.234 29.1037 325.15 29.344 325.15 29.6567V37.7627H323.687ZM322.434 31.3787V30.2027H327.061V31.3787H322.434ZM331.185 37.9727C330.429 37.9727 329.773 37.8024 329.218 37.4617C328.663 37.121 328.233 36.652 327.93 36.0547C327.631 35.4527 327.482 34.7597 327.482 33.9757C327.482 33.187 327.636 32.494 327.944 31.8967C328.252 31.2947 328.684 30.828 329.239 30.4967C329.794 30.1607 330.443 29.9927 331.185 29.9927C331.941 29.9927 332.597 30.163 333.152 30.5037C333.707 30.8444 334.137 31.3134 334.44 31.9107C334.743 32.508 334.895 33.1964 334.895 33.9757C334.895 34.7644 334.741 35.4597 334.433 36.0617C334.13 36.659 333.7 37.128 333.145 37.4687C332.59 37.8047 331.936 37.9727 331.185 37.9727ZM331.185 36.5937C331.908 36.5937 332.447 36.351 332.802 35.8657C333.161 35.3757 333.341 34.7457 333.341 33.9757C333.341 33.187 333.159 32.557 332.795 32.0857C332.436 31.6097 331.899 31.3717 331.185 31.3717C330.695 31.3717 330.291 31.4837 329.974 31.7077C329.657 31.927 329.421 32.2327 329.267 32.6247C329.113 33.012 329.036 33.4624 329.036 33.9757C329.036 34.769 329.218 35.4037 329.582 35.8797C329.946 36.3557 330.48 36.5937 331.185 36.5937Z" fill="black"/>
<circle cx="228.5" cy="31.2627" r="14" stroke="#3A2B65"/>
<circle cx="228.5" cy="31.2618" r="12.629" fill="#3A2B65"/>
<path d="M224.8 36.7547L224.808 35.2667L229.824 30.7707C230.229 30.4134 230.504 30.072 230.648 29.7467C230.797 29.4214 230.872 29.096 230.872 28.7707C230.872 28.36 230.781 27.992 230.6 27.6667C230.419 27.336 230.168 27.0747 229.848 26.8827C229.528 26.6907 229.16 26.5947 228.744 26.5947C228.317 26.5947 227.936 26.696 227.6 26.8987C227.269 27.096 227.011 27.36 226.824 27.6907C226.637 28.0214 226.547 28.3787 226.552 28.7627H224.84C224.84 28.016 225.008 27.3627 225.344 26.8027C225.685 26.2374 226.152 25.7974 226.744 25.4827C227.336 25.1627 228.013 25.0027 228.776 25.0027C229.501 25.0027 230.152 25.168 230.728 25.4987C231.304 25.824 231.757 26.272 232.088 26.8427C232.424 27.4134 232.592 28.064 232.592 28.7947C232.592 29.3227 232.523 29.7707 232.384 30.1387C232.245 30.5067 232.037 30.848 231.76 31.1627C231.483 31.4774 231.136 31.8187 230.72 32.1867L226.848 35.6427L226.664 35.1627H232.592V36.7547H224.8Z" fill="white"/>
<line x1="164" y1="30.7627" x2="198" y2="30.7627" stroke="#B8B29F" stroke-width="2"/>
</svg>
