<svg width="356" height="61" viewBox="0 0 356 61" fill="none" xmlns="http://www.w3.org/2000/svg">
<rect y="0.762695" width="356" height="60" rx="10" fill="#FFF0C2"/>
<path d="M63.98 36.7627V26.6827H67.942C68.5813 26.6827 69.118 26.8134 69.552 27.0747C69.986 27.336 70.3127 27.6744 70.532 28.0897C70.7513 28.5004 70.861 28.9344 70.861 29.3917C70.861 29.947 70.7233 30.423 70.448 30.8197C70.1773 31.2164 69.811 31.487 69.349 31.6317L69.335 31.2887C69.979 31.4474 70.4737 31.7577 70.819 32.2197C71.1643 32.677 71.337 33.2114 71.337 33.8227C71.337 34.4154 71.218 34.931 70.98 35.3697C70.7467 35.8084 70.4037 36.1514 69.951 36.3987C69.503 36.6414 68.9593 36.7627 68.32 36.7627H63.98ZM65.464 35.3697H68.096C68.4273 35.3697 68.7237 35.3067 68.985 35.1807C69.251 35.0547 69.4587 34.875 69.608 34.6417C69.762 34.4037 69.839 34.1214 69.839 33.7947C69.839 33.4914 69.7713 33.2184 69.636 32.9757C69.5053 32.7284 69.314 32.5347 69.062 32.3947C68.8147 32.25 68.523 32.1777 68.187 32.1777H65.464V35.3697ZM65.464 30.7987H67.921C68.1917 30.7987 68.4343 30.745 68.649 30.6377C68.8683 30.5257 69.041 30.367 69.167 30.1617C69.2977 29.9517 69.363 29.6997 69.363 29.4057C69.363 29.0137 69.2323 28.6917 68.971 28.4397C68.7097 28.1877 68.3597 28.0617 67.921 28.0617H65.464V30.7987ZM75.579 36.9657C75.0563 36.9657 74.6177 36.8817 74.263 36.7137C73.9083 36.5457 73.619 36.3264 73.395 36.0557C73.1757 35.7804 73.0077 35.4817 72.891 35.1597C72.7743 34.8377 72.695 34.5227 72.653 34.2147C72.611 33.9067 72.59 33.636 72.59 33.4027V29.2027H74.074V32.9197C74.074 33.2137 74.0973 33.517 74.144 33.8297C74.1953 34.1377 74.2887 34.4247 74.424 34.6907C74.564 34.9567 74.7577 35.1714 75.005 35.3347C75.257 35.498 75.5837 35.5797 75.985 35.5797C76.2463 35.5797 76.4937 35.5377 76.727 35.4537C76.9603 35.365 77.1633 35.225 77.336 35.0337C77.5133 34.8424 77.651 34.5904 77.749 34.2777C77.8517 33.965 77.903 33.5847 77.903 33.1367L78.813 33.4797C78.813 34.1657 78.6847 34.7724 78.428 35.2997C78.1713 35.8224 77.8027 36.2307 77.322 36.5247C76.8413 36.8187 76.2603 36.9657 75.579 36.9657ZM78.078 36.7627V34.5787H77.903V29.2027H79.38V36.7627H78.078ZM84.2343 36.9657C83.3149 36.9657 82.5659 36.7627 81.9873 36.3567C81.4086 35.9507 81.0539 35.379 80.9233 34.6417L82.4213 34.4107C82.5146 34.8027 82.7293 35.113 83.0653 35.3417C83.4059 35.5657 83.8283 35.6777 84.3323 35.6777C84.7896 35.6777 85.1466 35.5844 85.4033 35.3977C85.6646 35.211 85.7953 34.9544 85.7953 34.6277C85.7953 34.4364 85.7486 34.2824 85.6553 34.1657C85.5666 34.0444 85.3776 33.93 85.0883 33.8227C84.7989 33.7154 84.3579 33.5824 83.7653 33.4237C83.1166 33.2557 82.6009 33.076 82.2183 32.8847C81.8403 32.6887 81.5696 32.4624 81.4063 32.2057C81.2476 31.9444 81.1683 31.6294 81.1683 31.2607C81.1683 30.8034 81.2896 30.4044 81.5323 30.0637C81.7749 29.723 82.1156 29.4594 82.5543 29.2727C82.9976 29.086 83.5156 28.9927 84.1083 28.9927C84.6869 28.9927 85.2026 29.0837 85.6553 29.2657C86.1079 29.4477 86.4743 29.7067 86.7543 30.0427C87.0343 30.374 87.2023 30.7637 87.2583 31.2117L85.7603 31.4847C85.7089 31.1207 85.5386 30.8337 85.2493 30.6237C84.9599 30.4137 84.5843 30.2994 84.1223 30.2807C83.6789 30.262 83.3196 30.3367 83.0443 30.5047C82.7689 30.668 82.6313 30.8944 82.6313 31.1837C82.6313 31.3517 82.6826 31.494 82.7853 31.6107C82.8926 31.7274 83.0979 31.8394 83.4013 31.9467C83.7046 32.054 84.1526 32.1824 84.7453 32.3317C85.3799 32.495 85.8839 32.677 86.2573 32.8777C86.6306 33.0737 86.8966 33.3094 87.0553 33.5847C87.2186 33.8554 87.3003 34.1844 87.3003 34.5717C87.3003 35.3184 87.0273 35.904 86.4813 36.3287C85.9399 36.7534 85.1909 36.9657 84.2343 36.9657ZM88.9891 27.9637V26.5427H90.4521V27.9637H88.9891ZM88.9891 36.7627V29.2027H90.4521V36.7627H88.9891ZM97.8602 36.7627V33.0457C97.8602 32.7517 97.8346 32.4507 97.7832 32.1427C97.7366 31.83 97.6432 31.5407 97.5032 31.2747C97.3679 31.0087 97.1742 30.794 96.9222 30.6307C96.6749 30.4674 96.3506 30.3857 95.9492 30.3857C95.6879 30.3857 95.4406 30.43 95.2072 30.5187C94.9739 30.6027 94.7686 30.7404 94.5912 30.9317C94.4186 31.123 94.2809 31.375 94.1782 31.6877C94.0802 32.0004 94.0312 32.3807 94.0312 32.8287L93.1212 32.4857C93.1212 31.7997 93.2496 31.1954 93.5062 30.6727C93.7629 30.1454 94.1316 29.7347 94.6122 29.4407C95.0929 29.1467 95.6739 28.9997 96.3552 28.9997C96.8779 28.9997 97.3166 29.0837 97.6712 29.2517C98.0259 29.4197 98.3129 29.6414 98.5322 29.9167C98.7562 30.1874 98.9266 30.4837 99.0432 30.8057C99.1599 31.1277 99.2392 31.4427 99.2812 31.7507C99.3232 32.0587 99.3442 32.3294 99.3442 32.5627V36.7627H97.8602ZM92.5472 36.7627V29.2027H93.8562V31.3867H94.0312V36.7627H92.5472ZM104.425 36.9727C103.673 36.9727 103.013 36.8094 102.444 36.4827C101.879 36.1514 101.438 35.6917 101.121 35.1037C100.808 34.511 100.652 33.825 100.652 33.0457C100.652 32.2197 100.806 31.5034 101.114 30.8967C101.426 30.29 101.86 29.821 102.416 29.4897C102.971 29.1584 103.617 28.9927 104.355 28.9927C105.125 28.9927 105.78 29.1724 106.322 29.5317C106.863 29.8864 107.267 30.3927 107.533 31.0507C107.803 31.7087 107.911 32.4904 107.855 33.3957H106.392V32.8637C106.382 31.9864 106.214 31.3377 105.888 30.9177C105.566 30.4977 105.073 30.2877 104.411 30.2877C103.678 30.2877 103.127 30.5187 102.759 30.9807C102.39 31.4427 102.206 32.11 102.206 32.9827C102.206 33.8134 102.39 34.4574 102.759 34.9147C103.127 35.3674 103.659 35.5937 104.355 35.5937C104.812 35.5937 105.206 35.491 105.538 35.2857C105.874 35.0757 106.135 34.777 106.322 34.3897L107.757 34.8447C107.463 35.5214 107.017 36.0464 106.42 36.4197C105.822 36.7884 105.157 36.9727 104.425 36.9727ZM101.73 33.3957V32.2547H107.127V33.3957H101.73ZM112.316 36.9657C111.397 36.9657 110.648 36.7627 110.069 36.3567C109.491 35.9507 109.136 35.379 109.005 34.6417L110.503 34.4107C110.597 34.8027 110.811 35.113 111.147 35.3417C111.488 35.5657 111.91 35.6777 112.414 35.6777C112.872 35.6777 113.229 35.5844 113.485 35.3977C113.747 35.211 113.877 34.9544 113.877 34.6277C113.877 34.4364 113.831 34.2824 113.737 34.1657C113.649 34.0444 113.46 33.93 113.17 33.8227C112.881 33.7154 112.44 33.5824 111.847 33.4237C111.199 33.2557 110.683 33.076 110.3 32.8847C109.922 32.6887 109.652 32.4624 109.488 32.2057C109.33 31.9444 109.25 31.6294 109.25 31.2607C109.25 30.8034 109.372 30.4044 109.614 30.0637C109.857 29.723 110.198 29.4594 110.636 29.2727C111.08 29.086 111.598 28.9927 112.19 28.9927C112.769 28.9927 113.285 29.0837 113.737 29.2657C114.19 29.4477 114.556 29.7067 114.836 30.0427C115.116 30.374 115.284 30.7637 115.34 31.2117L113.842 31.4847C113.791 31.1207 113.621 30.8337 113.331 30.6237C113.042 30.4137 112.666 30.2994 112.204 30.2807C111.761 30.262 111.402 30.3367 111.126 30.5047C110.851 30.668 110.713 30.8944 110.713 31.1837C110.713 31.3517 110.765 31.494 110.867 31.6107C110.975 31.7274 111.18 31.8394 111.483 31.9467C111.787 32.054 112.235 32.1824 112.827 32.3317C113.462 32.495 113.966 32.677 114.339 32.8777C114.713 33.0737 114.979 33.3094 115.137 33.5847C115.301 33.8554 115.382 34.1844 115.382 34.5717C115.382 35.3184 115.109 35.904 114.563 36.3287C114.022 36.7534 113.273 36.9657 112.316 36.9657ZM119.822 36.9657C118.903 36.9657 118.154 36.7627 117.575 36.3567C116.997 35.9507 116.642 35.379 116.511 34.6417L118.009 34.4107C118.103 34.8027 118.317 35.113 118.653 35.3417C118.994 35.5657 119.416 35.6777 119.92 35.6777C120.378 35.6777 120.735 35.5844 120.991 35.3977C121.253 35.211 121.383 34.9544 121.383 34.6277C121.383 34.4364 121.337 34.2824 121.243 34.1657C121.155 34.0444 120.966 33.93 120.676 33.8227C120.387 33.7154 119.946 33.5824 119.353 33.4237C118.705 33.2557 118.189 33.076 117.806 32.8847C117.428 32.6887 117.158 32.4624 116.994 32.2057C116.836 31.9444 116.756 31.6294 116.756 31.2607C116.756 30.8034 116.878 30.4044 117.12 30.0637C117.363 29.723 117.704 29.4594 118.142 29.2727C118.586 29.086 119.104 28.9927 119.696 28.9927C120.275 28.9927 120.791 29.0837 121.243 29.2657C121.696 29.4477 122.062 29.7067 122.342 30.0427C122.622 30.374 122.79 30.7637 122.846 31.2117L121.348 31.4847C121.297 31.1207 121.127 30.8337 120.837 30.6237C120.548 30.4137 120.172 30.2994 119.71 30.2807C119.267 30.262 118.908 30.3367 118.632 30.5047C118.357 30.668 118.219 30.8944 118.219 31.1837C118.219 31.3517 118.271 31.494 118.373 31.6107C118.481 31.7274 118.686 31.8394 118.989 31.9467C119.293 32.054 119.741 32.1824 120.333 32.3317C120.968 32.495 121.472 32.677 121.845 32.8777C122.219 33.0737 122.485 33.3094 122.643 33.5847C122.807 33.8554 122.888 34.1844 122.888 34.5717C122.888 35.3184 122.615 35.904 122.069 36.3287C121.528 36.7534 120.779 36.9657 119.822 36.9657ZM127.38 36.7627V26.6827H128.843V36.7627H127.38ZM136.251 36.7627V33.0457C136.251 32.7517 136.225 32.4507 136.174 32.1427C136.127 31.83 136.034 31.5407 135.894 31.2747C135.759 31.0087 135.565 30.794 135.313 30.6307C135.066 30.4674 134.741 30.3857 134.34 30.3857C134.079 30.3857 133.831 30.43 133.598 30.5187C133.365 30.6027 133.159 30.7404 132.982 30.9317C132.809 31.123 132.672 31.375 132.569 31.6877C132.471 32.0004 132.422 32.3807 132.422 32.8287L131.512 32.4857C131.512 31.7997 131.64 31.1954 131.897 30.6727C132.154 30.1454 132.522 29.7347 133.003 29.4407C133.484 29.1467 134.065 28.9997 134.746 28.9997C135.269 28.9997 135.707 29.0837 136.062 29.2517C136.417 29.4197 136.704 29.6414 136.923 29.9167C137.147 30.1874 137.317 30.4837 137.434 30.8057C137.551 31.1277 137.63 31.4427 137.672 31.7507C137.714 32.0587 137.735 32.3294 137.735 32.5627V36.7627H136.251ZM130.938 36.7627V29.2027H132.247V31.3867H132.422V36.7627H130.938ZM140.251 36.7627V28.9367C140.251 28.7454 140.258 28.5424 140.272 28.3277C140.286 28.1084 140.326 27.8937 140.391 27.6837C140.461 27.469 140.575 27.273 140.734 27.0957C140.925 26.8857 141.135 26.7364 141.364 26.6477C141.593 26.559 141.819 26.5077 142.043 26.4937C142.272 26.4797 142.482 26.4727 142.673 26.4727H143.625V27.6767H142.743C142.398 27.6767 142.139 27.763 141.966 27.9357C141.798 28.1037 141.714 28.344 141.714 28.6567V36.7627H140.251ZM138.998 30.3787V29.2027H143.625V30.3787H138.998ZM147.749 36.9727C146.993 36.9727 146.338 36.8024 145.782 36.4617C145.227 36.121 144.798 35.652 144.494 35.0547C144.196 34.4527 144.046 33.7597 144.046 32.9757C144.046 32.187 144.2 31.494 144.508 30.8967C144.816 30.2947 145.248 29.828 145.803 29.4967C146.359 29.1607 147.007 28.9927 147.749 28.9927C148.505 28.9927 149.161 29.163 149.716 29.5037C150.272 29.8444 150.701 30.3134 151.004 30.9107C151.308 31.508 151.459 32.1964 151.459 32.9757C151.459 33.7644 151.305 34.4597 150.997 35.0617C150.694 35.659 150.265 36.128 149.709 36.4687C149.154 36.8047 148.501 36.9727 147.749 36.9727ZM147.749 35.5937C148.473 35.5937 149.012 35.351 149.366 34.8657C149.726 34.3757 149.905 33.7457 149.905 32.9757C149.905 32.187 149.723 31.557 149.359 31.0857C149 30.6097 148.463 30.3717 147.749 30.3717C147.259 30.3717 146.856 30.4837 146.538 30.7077C146.221 30.927 145.985 31.2327 145.831 31.6247C145.677 32.012 145.6 32.4624 145.6 32.9757C145.6 33.769 145.782 34.4037 146.146 34.8797C146.51 35.3557 147.045 35.5937 147.749 35.5937Z" fill="black"/>
<circle cx="38.5" cy="31.2627" r="14" stroke="#3A2B65"/>
<circle cx="38.5001" cy="31.2628" r="12.629" fill="#3A2B65"/>
<path d="M38.128 36.7627V27.0827L35.96 28.4027V26.5387L38.128 25.2427H39.832V36.7627H38.128Z" fill="white"/>
<path d="M257.26 36.7627L260.484 27.4027H261.752L264.976 36.7627H263.981L260.92 27.9357H261.297L258.255 36.7627H257.26ZM258.697 34.4942V33.5972H263.532V34.4942H258.697ZM268.873 36.9577C268.218 36.9577 267.659 36.7952 267.196 36.4702C266.732 36.1409 266.377 35.6967 266.13 35.1377C265.883 34.5787 265.759 33.9482 265.759 33.2462C265.759 32.5485 265.881 31.9202 266.123 31.3612C266.37 30.8022 266.723 30.3602 267.183 30.0352C267.642 29.7102 268.192 29.5477 268.834 29.5477C269.492 29.5477 270.047 29.708 270.498 30.0287C270.948 30.3494 271.289 30.7892 271.518 31.3482C271.752 31.9029 271.869 32.5355 271.869 33.2462C271.869 33.9439 271.754 34.5744 271.525 35.1377C271.295 35.6967 270.957 36.1409 270.511 36.4702C270.064 36.7952 269.518 36.9577 268.873 36.9577ZM268.97 36.0672C269.469 36.0672 269.88 35.9459 270.205 35.7032C270.53 35.4605 270.773 35.1269 270.933 34.7022C271.094 34.2732 271.174 33.7879 271.174 33.2462C271.174 32.6959 271.094 32.2105 270.933 31.7902C270.773 31.3655 270.53 31.034 270.205 30.7957C269.885 30.5574 269.479 30.4382 268.99 30.4382C268.487 30.4382 268.071 30.5617 267.742 30.8087C267.412 31.0557 267.168 31.3915 267.007 31.8162C266.851 32.2409 266.773 32.7175 266.773 33.2462C266.773 33.7792 266.853 34.2602 267.014 34.6892C267.178 35.1139 267.423 35.4497 267.748 35.6967C268.073 35.9437 268.481 36.0672 268.97 36.0672ZM271.174 36.7627V31.4782H271.07V27.4027H272.032V36.7627H271.174ZM276.579 36.9577C275.924 36.9577 275.365 36.7952 274.902 36.4702C274.438 36.1409 274.083 35.6967 273.836 35.1377C273.589 34.5787 273.465 33.9482 273.465 33.2462C273.465 32.5485 273.587 31.9202 273.829 31.3612C274.076 30.8022 274.429 30.3602 274.889 30.0352C275.348 29.7102 275.898 29.5477 276.54 29.5477C277.198 29.5477 277.753 29.708 278.204 30.0287C278.654 30.3494 278.995 30.7892 279.224 31.3482C279.458 31.9029 279.575 32.5355 279.575 33.2462C279.575 33.9439 279.46 34.5744 279.231 35.1377C279.001 35.6967 278.663 36.1409 278.217 36.4702C277.77 36.7952 277.224 36.9577 276.579 36.9577ZM276.676 36.0672C277.175 36.0672 277.586 35.9459 277.911 35.7032C278.236 35.4605 278.479 35.1269 278.639 34.7022C278.8 34.2732 278.88 33.7879 278.88 33.2462C278.88 32.6959 278.8 32.2105 278.639 31.7902C278.479 31.3655 278.236 31.034 277.911 30.7957C277.591 30.5574 277.185 30.4382 276.696 30.4382C276.193 30.4382 275.777 30.5617 275.448 30.8087C275.118 31.0557 274.874 31.3915 274.713 31.8162C274.557 32.2409 274.479 32.7175 274.479 33.2462C274.479 33.7792 274.559 34.2602 274.72 34.6892C274.884 35.1139 275.129 35.4497 275.454 35.6967C275.779 35.9437 276.187 36.0672 276.676 36.0672ZM278.88 36.7627V31.4782H278.776V27.4027H279.738V36.7627H278.88ZM281.561 36.7627V29.7427H282.419V31.4327L282.25 31.2117C282.328 31.0037 282.43 30.813 282.556 30.6397C282.682 30.462 282.818 30.3169 282.965 30.2042C283.147 30.0439 283.36 29.9225 283.602 29.8402C283.845 29.7535 284.09 29.7037 284.337 29.6907C284.584 29.6734 284.809 29.6907 285.013 29.7427V30.6397C284.757 30.5747 284.478 30.5595 284.174 30.5942C283.871 30.6289 283.592 30.7502 283.336 30.9582C283.102 31.1402 282.926 31.359 282.809 31.6147C282.692 31.866 282.614 32.1347 282.575 32.4207C282.536 32.7024 282.517 32.9819 282.517 33.2592V36.7627H281.561ZM289.089 36.9577C288.405 36.9577 287.811 36.806 287.308 36.5027C286.81 36.1994 286.422 35.7725 286.145 35.2222C285.868 34.6719 285.729 34.0262 285.729 33.2852C285.729 32.5182 285.865 31.8552 286.138 31.2962C286.411 30.7372 286.795 30.306 287.289 30.0027C287.787 29.6994 288.374 29.5477 289.05 29.5477C289.744 29.5477 290.335 29.708 290.825 30.0287C291.315 30.345 291.685 30.8 291.936 31.3937C292.188 31.9874 292.303 32.6959 292.281 33.5192H291.306V33.1812C291.289 32.2712 291.091 31.5844 290.714 31.1207C290.342 30.657 289.796 30.4252 289.076 30.4252C288.322 30.4252 287.744 30.67 287.341 31.1597C286.942 31.6494 286.743 32.347 286.743 33.2527C286.743 34.1367 286.942 34.8235 287.341 35.3132C287.744 35.7985 288.314 36.0412 289.05 36.0412C289.553 36.0412 289.991 35.9264 290.363 35.6967C290.74 35.4627 291.037 35.1269 291.254 34.6892L292.144 35.0337C291.867 35.6447 291.458 36.1192 290.916 36.4572C290.379 36.7909 289.77 36.9577 289.089 36.9577ZM286.405 33.5192V32.7197H291.767V33.5192H286.405ZM296.343 36.9512C295.52 36.9512 294.841 36.7735 294.308 36.4182C293.78 36.0629 293.455 35.5689 293.333 34.9362L294.308 34.7737C294.412 35.1724 294.649 35.4909 295.017 35.7292C295.39 35.9632 295.849 36.0802 296.395 36.0802C296.928 36.0802 297.348 35.9697 297.656 35.7487C297.964 35.5234 298.117 35.2179 298.117 34.8322C298.117 34.6155 298.068 34.44 297.968 34.3057C297.873 34.167 297.675 34.0392 297.376 33.9222C297.077 33.8052 296.631 33.6665 296.037 33.5062C295.4 33.3329 294.902 33.1595 294.542 32.9862C294.183 32.8129 293.927 32.6135 293.775 32.3882C293.624 32.1585 293.548 31.879 293.548 31.5497C293.548 31.151 293.661 30.8022 293.886 30.5032C294.111 30.1999 294.423 29.9659 294.822 29.8012C295.221 29.6322 295.684 29.5477 296.213 29.5477C296.742 29.5477 297.214 29.6344 297.63 29.8077C298.05 29.9767 298.388 30.215 298.644 30.5227C298.9 30.8304 299.051 31.1879 299.099 31.5952L298.124 31.7707C298.059 31.359 297.853 31.034 297.506 30.7957C297.164 30.553 296.729 30.4274 296.2 30.4187C295.702 30.4057 295.296 30.501 294.984 30.7047C294.672 30.904 294.516 31.1705 294.516 31.5042C294.516 31.6905 294.573 31.8509 294.685 31.9852C294.798 32.1152 295.002 32.2387 295.296 32.3557C295.595 32.4727 296.02 32.6005 296.57 32.7392C297.216 32.9039 297.723 33.0772 298.091 33.2592C298.46 33.4412 298.722 33.6557 298.878 33.9027C299.034 34.1497 299.112 34.4552 299.112 34.8192C299.112 35.4822 298.865 36.0044 298.371 36.3857C297.881 36.7627 297.205 36.9512 296.343 36.9512ZM303.173 36.9512C302.35 36.9512 301.672 36.7735 301.139 36.4182C300.61 36.0629 300.285 35.5689 300.164 34.9362L301.139 34.7737C301.243 35.1724 301.479 35.4909 301.847 35.7292C302.22 35.9632 302.679 36.0802 303.225 36.0802C303.758 36.0802 304.178 35.9697 304.486 35.7487C304.794 35.5234 304.948 35.2179 304.948 34.8322C304.948 34.6155 304.898 34.44 304.798 34.3057C304.703 34.167 304.506 34.0392 304.207 33.9222C303.908 33.8052 303.461 33.6665 302.868 33.5062C302.231 33.3329 301.732 33.1595 301.373 32.9862C301.013 32.8129 300.757 32.6135 300.606 32.3882C300.454 32.1585 300.378 31.879 300.378 31.5497C300.378 31.151 300.491 30.8022 300.716 30.5032C300.941 30.1999 301.253 29.9659 301.652 29.8012C302.051 29.6322 302.514 29.5477 303.043 29.5477C303.572 29.5477 304.044 29.6344 304.46 29.8077C304.88 29.9767 305.218 30.215 305.474 30.5227C305.73 30.8304 305.881 31.1879 305.929 31.5952L304.954 31.7707C304.889 31.359 304.683 31.034 304.337 30.7957C303.994 30.553 303.559 30.4274 303.03 30.4187C302.532 30.4057 302.127 30.501 301.815 30.7047C301.503 30.904 301.347 31.1705 301.347 31.5042C301.347 31.6905 301.403 31.8509 301.516 31.9852C301.628 32.1152 301.832 32.2387 302.127 32.3557C302.426 32.4727 302.85 32.6005 303.401 32.7392C304.046 32.9039 304.553 33.0772 304.922 33.2592C305.29 33.4412 305.552 33.6557 305.708 33.9027C305.864 34.1497 305.942 34.4552 305.942 34.8192C305.942 35.4822 305.695 36.0044 305.201 36.3857C304.711 36.7627 304.035 36.9512 303.173 36.9512ZM310.116 36.7627V27.4027H311.072V36.7627H310.116ZM318.09 36.7627V33.1812C318.09 32.7912 318.054 32.4337 317.98 32.1087C317.906 31.7794 317.787 31.4934 317.622 31.2507C317.462 31.0037 317.252 30.813 316.992 30.6787C316.736 30.5444 316.424 30.4772 316.056 30.4772C315.718 30.4772 315.419 30.5357 315.159 30.6527C314.903 30.7697 314.687 30.9387 314.509 31.1597C314.336 31.3764 314.203 31.6407 314.112 31.9527C314.021 32.2647 313.976 32.62 313.976 33.0187L313.3 32.8692C313.3 32.1499 313.426 31.5454 313.677 31.0557C313.928 30.566 314.275 30.1955 314.717 29.9442C315.159 29.6929 315.666 29.5672 316.238 29.5672C316.658 29.5672 317.024 29.6322 317.336 29.7622C317.653 29.8922 317.919 30.0677 318.136 30.2887C318.357 30.5097 318.535 30.7632 318.669 31.0492C318.803 31.3309 318.901 31.632 318.961 31.9527C319.022 32.269 319.052 32.5854 319.052 32.9017V36.7627H318.09ZM313.014 36.7627V29.7427H313.878V31.4717H313.976V36.7627H313.014ZM321.435 36.7627V29.2227C321.435 29.0407 321.443 28.8609 321.461 28.6832C321.482 28.5055 321.523 28.3365 321.584 28.1762C321.645 28.0115 321.74 27.8599 321.87 27.7212C322.013 27.5652 322.169 27.4525 322.338 27.3832C322.507 27.3095 322.683 27.2619 322.865 27.2402C323.051 27.2185 323.233 27.2077 323.411 27.2077H324.308V28.0137H323.476C323.112 28.0137 322.839 28.1025 322.657 28.2802C322.479 28.4579 322.39 28.7374 322.39 29.1187V36.7627H321.435ZM320.219 30.5617V29.7427H324.308V30.5617H320.219ZM328.025 36.9577C327.327 36.9577 326.732 36.7995 326.238 36.4832C325.744 36.1669 325.364 35.7292 325.1 35.1702C324.836 34.6112 324.704 33.9699 324.704 33.2462C324.704 32.5095 324.838 31.8639 325.107 31.3092C325.375 30.7545 325.757 30.3234 326.251 30.0157C326.749 29.7037 327.34 29.5477 328.025 29.5477C328.727 29.5477 329.325 29.7059 329.819 30.0222C330.317 30.3342 330.697 30.7697 330.957 31.3287C331.221 31.8834 331.353 32.5225 331.353 33.2462C331.353 33.9829 331.221 34.6307 330.957 35.1897C330.692 35.7444 330.311 36.1777 329.813 36.4897C329.314 36.8017 328.718 36.9577 328.025 36.9577ZM328.025 36.0412C328.805 36.0412 329.386 35.7834 329.767 35.2677C330.148 34.7477 330.339 34.0739 330.339 33.2462C330.339 32.3969 330.146 31.7209 329.761 31.2182C329.379 30.7155 328.801 30.4642 328.025 30.4642C327.501 30.4642 327.067 30.5834 326.725 30.8217C326.387 31.0557 326.134 31.3829 325.965 31.8032C325.8 32.2192 325.718 32.7002 325.718 33.2462C325.718 34.0912 325.913 34.7694 326.303 35.2807C326.693 35.7877 327.267 36.0412 328.025 36.0412Z" fill="#2A2A2A"/>
<circle cx="232.5" cy="32.2627" r="13" fill="white" stroke="#7B7B7B"/>
<path d="M229.42 36.9159L229.427 35.7959L233.9 31.7709C234.273 31.4349 234.523 31.1175 234.649 30.8189C234.779 30.5155 234.845 30.2052 234.845 29.8879C234.845 29.5005 234.756 29.1505 234.579 28.8379C234.401 28.5252 234.159 28.2779 233.851 28.0959C233.547 27.9139 233.202 27.8229 232.815 27.8229C232.413 27.8229 232.056 27.9185 231.744 28.1099C231.431 28.2965 231.184 28.5462 231.002 28.8589C230.824 29.1715 230.738 29.5122 230.743 29.8809H229.469C229.469 29.2462 229.616 28.6862 229.91 28.2009C230.204 27.7109 230.603 27.3282 231.107 27.0529C231.615 26.7729 232.192 26.6329 232.836 26.6329C233.461 26.6329 234.021 26.7775 234.516 27.0669C235.01 27.3515 235.4 27.7412 235.685 28.2359C235.974 28.7259 236.119 29.2812 236.119 29.9019C236.119 30.3405 236.063 30.7209 235.951 31.0429C235.843 31.3649 235.675 31.6635 235.447 31.9389C235.218 32.2095 234.931 32.4989 234.586 32.8069L230.869 36.1459L230.708 35.7259H236.119V36.9159H229.42Z" fill="#7C7C7C"/>
<line x1="169" y1="30.7627" x2="203" y2="30.7627" stroke="#B8B29F" stroke-width="2"/>
</svg>
